<svg xmlns="http://www.w3.org/2000/svg" viewBox="0 0 48 48" fill="none">
  <rect width="48" height="48" rx="12" fill="#ff4500"/>
  <path d="M15 17.5C15 14.462 17.462 12 20.5 12H29C30.105 12 31 12.895 31 14C31 15.105 30.105 16 29 16H20.5C19.672 16 19 16.672 19 17.5C19 18.328 19.672 19 20.5 19H27.5C30.538 19 33 21.462 33 24.5C33 27.538 30.538 30 27.5 30H19C17.895 30 17 30.895 17 32C17 33.105 17.895 34 19 34H28.5C29.328 34 30 34.672 30 35.5C30 36.328 29.328 37 28.5 37H19C16.239 37 14 34.761 14 32C14 29.239 16.239 27 19 27H27.5C28.328 27 29 26.328 29 25.5C29 24.672 28.328 24 27.5 24H20.5C17.462 24 15 21.538 15 18.5V17.5Z" fill="white"/>
</svg>
